<svg xmlns="http://www.w3.org/2000/svg" width="1600" height="900" viewBox="0 0 1600 900" preserveAspectRatio="xMidYMid slice">
  <defs>
    <radialGradient id="nebula" cx="30%" cy="20%" r="60%">
      <stop offset="0%" stop-color="#1b2b46" stop-opacity="1" />
      <stop offset="50%" stop-color="#081026" stop-opacity="0.95" />
      <stop offset="100%" stop-color="#02030a" stop-opacity="1" />
    </radialGradient>
    <radialGradient id="glow" cx="70%" cy="70%" r="50%">
      <stop offset="0%" stop-color="#2b2f6b" stop-opacity="0.35" />
      <stop offset="50%" stop-color="#1b2345" stop-opacity="0.18" />
      <stop offset="100%" stop-color="#000" stop-opacity="0" />
    </radialGradient>
  </defs>
  <rect width="100%" height="100%" fill="url(#nebula)" />
  <rect width="100%" height="100%" fill="url(#glow)" />
  <!-- Stars group (layered for parallax feel) -->
  <g fill="#fff" opacity="0.9">
    <circle cx="120" cy="80" r="1.3" opacity="0.9"/>
    <circle cx="260" cy="200" r="1.1" opacity="0.8"/>
    <circle cx="420" cy="40" r="1.6" opacity="0.95"/>
    <circle cx="600" cy="130" r="1.2" opacity="0.8"/>
    <circle cx="780" cy="220" r="1.0" opacity="0.7"/>
    <circle cx="980" cy="60" r="1.4" opacity="0.9"/>
    <circle cx="1200" cy="180" r="1.0" opacity="0.6"/>
    <circle cx="1400" cy="90" r="1.2" opacity="0.8"/>
    <circle cx="150" cy="340" r="1.0" opacity="0.6"/>
    <circle cx="330" cy="300" r="1.5" opacity="0.95"/>
    <circle cx="480" cy="360" r="1.1" opacity="0.8"/>
    <circle cx="640" cy="420" r="1.3" opacity="0.85"/>
    <circle cx="820" cy="370" r="1.0" opacity="0.7"/>
    <circle cx="1040" cy="340" r="1.6" opacity="0.95"/>
    <circle cx="1280" cy="300" r="1.2" opacity="0.8"/>
    <circle cx="1480" cy="260" r="1.0" opacity="0.7"/>
    <circle cx="200" cy="520" r="1.3" opacity="0.85"/>
    <circle cx="360" cy="470" r="1.0" opacity="0.6"/>
    <circle cx="520" cy="560" r="1.4" opacity="0.9"/>
    <circle cx="680" cy="500" r="1.0" opacity="0.7"/>
    <circle cx="860" cy="520" r="1.2" opacity="0.8"/>
    <circle cx="1020" cy="580" r="1.0" opacity="0.6"/>
    <circle cx="1180" cy="540" r="1.5" opacity="0.95"/>
    <circle cx="1360" cy="600" r="1.1" opacity="0.8"/>
    <circle cx="1520" cy="520" r="1.0" opacity="0.7"/>
  </g>
  <g fill="#bfefff" opacity="0.45">
    <circle cx="420" cy="120" r="2.6"/>
    <circle cx="1040" cy="260" r="2.2"/>
    <circle cx="860" cy="420" r="2.0"/>
    <circle cx="300" cy="200" r="1.8"/>
  </g>
  <!-- subtle nebula shapes -->
  <ellipse cx="1100" cy="150" rx="420" ry="140" fill="#2b1648" opacity="0.12" />
  <ellipse cx="300" cy="600" rx="520" ry="220" fill="#122244" opacity="0.08" />
</svg>
